<?xml version="1.0" encoding="UTF-8"?>
<svg id="_图层_1" data-name="图层 1" xmlns="http://www.w3.org/2000/svg" width="144.596" height="61.284" viewBox="0 0 144.596 61.284">
  <defs>
    <style>
      .cls-1 {
        fill: #f9e978;
      }

      .cls-2 {
        fill: #231815;
      }
    </style>
  </defs>
  <rect class="cls-1" x="42.108" y="43.018" width="11.207" height="18.265"/>
  <rect class="cls-1" y="2.509" width="11.207" height="18.265"/>
  <g>
    <path class="cls-2" d="M38.754,43.083l-2.738,9.351c1.182-1.759,2.104-2.928,2.767-3.505s1.296-.867,1.9-.867c.312,0,.571,.106,.779,.318s.312,.494,.312,.847c0,.424-.091,.937-.272,1.541l-1.189,4.035c-.149,.488-.224,.758-.224,.809,0,.09,.027,.164,.083,.221,.055,.058,.119,.087,.19,.087,.084,0,.182-.042,.292-.125,.37-.282,.737-.674,1.101-1.175l.302,.183c-.221,.34-.528,.714-.92,1.122-.393,.408-.731,.69-1.014,.847-.282,.157-.534,.236-.755,.236-.24,0-.437-.075-.589-.226-.153-.151-.229-.345-.229-.583,0-.283,.114-.809,.341-1.58l1.121-3.852c.143-.481,.214-.86,.214-1.136,0-.128-.041-.231-.122-.308-.081-.077-.187-.116-.316-.116-.188,0-.403,.071-.643,.212-.442,.27-.952,.771-1.53,1.502-.156,.199-.675,1.001-1.559,2.408-.273,.449-.497,.94-.672,1.473l-.624,1.974h-1.461l3.206-11.016,.341-1.194c0-.167-.07-.314-.209-.443s-.31-.192-.511-.192c-.117,0-.296,.019-.536,.058l-.205,.029v-.375l3.371-.559Z"/>
    <g>
      <path class="cls-2" d="M3.918,52.066c-.67-.282-1.083-.584-1.234-.905-.151-.321-.153-.703-.003-1.146,.202-.597,.623-1.095,1.263-1.493,.873-.546,1.871-.819,2.995-.819,.669,0,1.243,.078,1.724,.231,.481,.155,.775,.355,.884,.603s.125,.479,.052,.698c-.067,.199-.212,.38-.437,.544-.224,.164-.447,.245-.667,.245-.357,0-.577-.229-.66-.688-.082-.459-.184-.739-.305-.842-.197-.167-.481-.251-.851-.251-.585,0-1.105,.168-1.564,.505-.458,.338-.785,.795-.979,1.372-.19,.565-.193,.999-.01,1.3,.185,.302,.526,.453,1.027,.453,.169,0,.357-.012,.567-.038,.334-.045,.591-.067,.773-.067,.278,0,.457,.035,.534,.105,.076,.071,.099,.154,.066,.25-.032,.096-.1,.17-.201,.221-.146,.083-.364,.126-.656,.126-.065,0-.169-.01-.312-.03-.323-.044-.591-.067-.806-.067-.545,0-1.052,.177-1.518,.53-.467,.353-.797,.818-.992,1.396-.228,.673-.225,1.198,.009,1.574,.234,.376,.637,.563,1.208,.563,.461,0,.884-.138,1.27-.415,.223-.16,.514-.494,.874-1.001,.235-.333,.407-.54,.509-.616,.277-.206,.533-.308,.768-.308,.272,0,.471,.093,.597,.279,.126,.186,.142,.417,.049,.693-.149,.443-.543,.852-1.183,1.224-.927,.533-1.968,.799-3.124,.799-1.221,0-2.071-.267-2.551-.799-.479-.533-.61-1.124-.392-1.772,.156-.462,.481-.902,.977-1.32,.494-.417,1.261-.796,2.297-1.136Z"/>
      <path class="cls-2" d="M46.39,55.003l2.842-3.139c.479-.533,.792-1.021,.942-1.464,.066-.199,.121-.459,.165-.78,.056-.417,.112-.709,.169-.876,.105-.314,.278-.566,.519-.756,.238-.188,.491-.284,.758-.284,.299,0,.504,.089,.616,.266,.113,.176,.116,.425,.007,.746-.084,.25-.195,.481-.332,.693-.262,.393-.66,.889-1.194,1.493l-2.271,2.484-3.345,3.679h-.399l-.461-6.115c-.073-.976-.161-1.572-.263-1.791-.16-.334-.399-.5-.718-.5-.091,0-.216,.016-.376,.048l.123-.367,2.374-.625h.292c.142,.661,.231,1.367,.271,2.118l.282,5.171Z"/>
    </g>
    <path class="cls-2" d="M16.555,49.468h10.23v.934h-10.23v-.934Zm0,3.592h10.23v.953h-10.23v-.953Z"/>
  </g>
  <path class="cls-2" d="M142.092,15.727c-1.562,1.721-3.687,2.66-6.369,2.816-2.684,.157-4.976-.678-6.877-2.503-1.903-1.825-2.866-3.963-2.892-6.416-.027-2.451,.638-4.485,1.993-6.103,1.354-1.616,2.708-2.607,4.064-2.973,1.354-.364,2.474-.548,3.36-.548,.781,0,1.81,.157,3.087,.47,1.276,.313,2.618,1.291,4.024,2.934,1.407,1.643,2.084,3.677,2.032,6.103-.053,2.425-.859,4.499-2.423,6.22Zm-3.517,1.643c1.302-.418,2.526-1.409,3.673-2.973,1.146-1.565,1.667-3.482,1.563-5.751-.105-2.269-1.004-4.198-2.696-5.79-1.693-1.59-3.726-2.347-6.096-2.269-2.372,.078-4.376,.992-6.018,2.738-1.642,1.749-2.437,3.769-2.384,6.064,.051,2.295,.768,4.173,2.149,5.633,1.38,1.46,2.644,2.32,3.791,2.582,1.146,.261,2.032,.391,2.657,.391,.938,0,2.058-.209,3.36-.625Zm-2.892-8.293c1.614,.156,2.644,.508,3.087,1.056,.442,.547,.664,1.083,.664,1.604,0,.209-.065,.522-.195,.938-.131,.418-.561,.9-1.289,1.448-.73,.547-1.733,.796-3.009,.743-1.277-.051-2.228-.338-2.853-.861-.625-.521-.99-.951-1.094-1.291-.105-.339-.156-.587-.156-.744,0-.313,.09-.534,.273-.665,.182-.129,.352-.195,.508-.195,.208,0,.442,.078,.704,.234,.26,.157,.338,.379,.234,.665-.105,.288-.261,.483-.469,.587-.105,.053-.156,.105-.156,.157,0,.156,.221,.444,.664,.86,.442,.418,1.185,.614,2.228,.587,1.041-.026,1.836-.274,2.383-.743,.548-.47,.821-1.017,.821-1.643s-.312-1.213-.938-1.76c-.625-.548-1.928-.795-3.907-.744v-.469c1.301,.053,2.356-.065,3.165-.352,.808-.286,1.198-.9,1.173-1.839-.027-.938-.326-1.538-.899-1.799-.573-.26-1.146-.391-1.719-.391-.312,0-.717,.039-1.211,.117-.496,.078-.834,.235-1.016,.47-.183,.234-.273,.404-.273,.508,0,.157,.078,.235,.234,.235,.312,.105,.442,.365,.391,.782-.052,.418-.287,.653-.703,.704-.417,.053-.704-.039-.86-.274-.156-.234-.234-.43-.234-.586,0-.313,.195-.744,.586-1.291,.391-.548,.911-.912,1.563-1.096,.651-.182,1.211-.273,1.68-.273,.363,0,.898,.078,1.602,.234,.704,.157,1.263,.47,1.681,.939,.416,.47,.625,.966,.625,1.487,0,.365-.092,.821-.273,1.369-.184,.547-1.186,.978-3.009,1.291Z"/>
  <path class="cls-2" d="M142.17,56.312c-1.562,1.721-3.687,2.66-6.369,2.816-2.684,.157-4.976-.678-6.877-2.503-1.903-1.825-2.866-3.963-2.892-6.416-.027-2.451,.638-4.485,1.993-6.103,1.354-1.616,2.708-2.607,4.064-2.973,1.354-.364,2.474-.548,3.36-.548,.781,0,1.81,.157,3.087,.47,1.276,.313,2.618,1.291,4.024,2.934,1.407,1.643,2.084,3.677,2.032,6.103-.053,2.425-.859,4.499-2.423,6.22Zm-3.517,1.643c1.302-.418,2.526-1.409,3.673-2.973,1.146-1.565,1.667-3.482,1.563-5.751-.105-2.269-1.004-4.198-2.696-5.79-1.693-1.59-3.726-2.347-6.096-2.269-2.372,.078-4.376,.992-6.018,2.738-1.642,1.749-2.437,3.769-2.384,6.064,.051,2.295,.768,4.173,2.149,5.633,1.38,1.46,2.644,2.32,3.791,2.582,1.146,.261,2.032,.391,2.657,.391,.938,0,2.058-.209,3.36-.625Zm-1.798-13.849v7.902h2.345v.547h-2.345v1.8c0,.418,.548,.626,1.642,.626v.391h-4.845v-.391c1.198,0,1.797-.235,1.797-.704v-1.722h-5.001v-.391l5.158-8.059h1.25Zm-1.406,7.902v-6.416l-4.142,6.416h4.142Z"/>
  <g>
    <path d="M41.861,19.218c0-.749,.112-1.393,.337-1.933,.224-.541,.522-.943,.894-1.208,.288-.209,.586-.314,.894-.314,.5,0,.948,.256,1.346,.77,.497,.635,.745,1.497,.745,2.584,0,.761-.109,1.408-.327,1.94-.218,.532-.496,.918-.834,1.159-.338,.24-.664,.36-.978,.36-.622,0-1.139-.37-1.553-1.108-.349-.623-.524-1.373-.524-2.25Zm.942,.121c0,.903,.11,1.641,.332,2.211,.183,.48,.455,.721,.817,.721,.173,0,.353-.079,.538-.235,.186-.156,.327-.418,.423-.786,.147-.555,.221-1.337,.221-2.347,0-.748-.077-1.372-.23-1.872-.115-.371-.265-.634-.447-.789-.131-.106-.29-.16-.476-.16-.218,0-.412,.099-.582,.295-.231,.268-.388,.688-.471,1.263-.083,.574-.125,1.141-.125,1.698Z"/>
    <g>
      <path d="M77.954,7.404l-1.898,6.644-.214,.892c-.02,.085-.029,.157-.029,.216,0,.104,.032,.196,.097,.274,.052,.059,.117,.088,.195,.088,.084,0,.195-.052,.331-.157,.253-.189,.59-.581,1.012-1.176l.331,.235c-.448,.68-.909,1.197-1.382,1.553s-.912,.534-1.314,.534c-.279,0-.488-.07-.628-.211-.14-.14-.209-.344-.209-.612,0-.32,.071-.742,.214-1.264l.205-.735c-.85,1.117-1.632,1.898-2.346,2.342-.513,.32-1.016,.48-1.509,.48-.474,0-.883-.198-1.227-.593-.344-.395-.516-.939-.516-1.631,0-1.039,.31-2.135,.93-3.288,.62-1.153,1.407-2.076,2.361-2.768,.746-.549,1.451-.823,2.112-.823,.396,0,.726,.104,.988,.313s.462,.555,.599,1.039l.351-1.117,1.548-.235Zm-3.466,.509c-.416,0-.856,.196-1.324,.588-.662,.555-1.251,1.378-1.767,2.469-.516,1.091-.774,2.078-.774,2.959,0,.444,.11,.795,.331,1.054s.474,.387,.759,.387c.708,0,1.477-.526,2.307-1.578,1.11-1.398,1.665-2.832,1.665-4.302,0-.555-.107-.957-.321-1.206-.214-.248-.506-.373-.876-.373Z"/>
      <path d="M83.746,4.973l-.759,2.666h1.528l-.166,.618h-1.519l-1.675,5.782c-.182,.621-.272,1.022-.272,1.206,0,.111,.026,.196,.078,.254,.052,.059,.113,.088,.185,.088,.163,0,.376-.114,.643-.343,.156-.131,.503-.533,1.042-1.206l.321,.245c-.597,.875-1.162,1.493-1.694,1.852-.363,.248-.73,.373-1.1,.373-.286,0-.52-.09-.701-.27s-.272-.41-.272-.691c0-.353,.104-.892,.312-1.617l1.625-5.674h-1.47l.097-.382c.714-.196,1.308-.488,1.782-.877,.474-.389,1.002-1.063,1.587-2.024h.428Z"/>
    </g>
    <g>
      <path d="M16.239,8.834h10.222v.951h-10.222v-.951Zm0,3.655h10.222v.97h-10.222v-.97Z"/>
      <path d="M58.085,5.983h.954v4.684h4.624v.951h-4.624v4.655h-.954v-4.655h-4.644v-.951h4.644V5.983Z"/>
    </g>
    <g>
      <path d="M1.062,9.305h-.438l.604-1.666,.233-.706c.195-.052,.38-.091,.555-.117,.175-.026,.34-.04,.496-.04,.247,0,.594,.04,1.042,.118,.551,.098,.944,.147,1.178,.147,.286,0,.649-.068,1.09-.206l.156,.245c-1.019,1.3-1.723,2.434-2.112,3.401-.39,.967-.584,1.924-.584,2.871,0,.693,.145,1.219,.434,1.578,.289,.359,.65,.539,1.085,.539,1.006,0,1.882-.665,2.628-1.994,.746-1.33,1.12-2.7,1.12-4.111,0-.431-.075-.742-.224-.931s-.354-.284-.613-.284c-.162,0-.354,.049-.574,.147l-.214-.343c.434-.386,.799-.758,1.096-1.117,.207-.04,.372-.059,.495-.059,.381,0,.695,.162,.941,.485,.246,.323,.369,.789,.369,1.396,0,1.11-.347,2.342-1.04,3.694-.694,1.353-1.559,2.44-2.596,3.263-.765,.614-1.484,.921-2.159,.921-.655,0-1.185-.232-1.59-.696s-.607-1.143-.607-2.039c0-.921,.247-1.875,.74-2.861,.298-.588,1.045-1.597,2.239-3.028-.409,.059-.747,.088-1.013,.088-.156,0-.351-.01-.584-.029-.279-.02-.48-.029-.604-.029-.11,0-.235,.011-.375,.034s-.297,.057-.472,.103c-.195,.294-.428,.702-.701,1.225Z"/>
      <path d="M31.819,9.305h-.438l.604-1.666,.233-.706c.195-.052,.38-.091,.555-.117,.175-.026,.34-.04,.496-.04,.247,0,.594,.04,1.042,.118,.551,.098,.944,.147,1.178,.147,.286,0,.649-.068,1.09-.206l.156,.245c-1.019,1.3-1.723,2.434-2.112,3.401-.39,.967-.584,1.924-.584,2.871,0,.693,.145,1.219,.434,1.578,.289,.359,.65,.539,1.085,.539,1.006,0,1.882-.665,2.628-1.994,.746-1.33,1.12-2.7,1.12-4.111,0-.431-.075-.742-.224-.931s-.354-.284-.613-.284c-.162,0-.354,.049-.574,.147l-.214-.343c.434-.386,.799-.758,1.096-1.117,.207-.04,.372-.059,.495-.059,.381,0,.695,.162,.941,.485,.246,.323,.369,.789,.369,1.396,0,1.11-.347,2.342-1.04,3.694-.694,1.353-1.559,2.44-2.596,3.263-.765,.614-1.484,.921-2.159,.921-.655,0-1.185-.232-1.59-.696s-.607-1.143-.607-2.039c0-.921,.247-1.875,.74-2.861,.298-.588,1.045-1.597,2.239-3.028-.409,.059-.747,.088-1.013,.088-.156,0-.351-.01-.584-.029-.279-.02-.48-.029-.604-.029-.11,0-.235,.011-.375,.034s-.297,.057-.472,.103c-.195,.294-.428,.702-.701,1.225Z"/>
    </g>
  </g>
</svg>