<?xml version="1.0" encoding="UTF-8"?>
<svg id="_图层_1" data-name="图层 1" xmlns="http://www.w3.org/2000/svg" width="144.596" height="61.284" viewBox="0 0 144.596 61.284">
  <defs>
    <style>
      .cls-1 {
        fill: #040000;
      }

      .cls-2 {
        fill: #e8db78;
      }
    </style>
  </defs>
  <rect class="cls-2" x="42.108" y="43.018" width="11.207" height="18.265"/>
  <rect class="cls-2" y="2.509" width="11.207" height="18.265"/>
  <g>
    <path class="cls-1" d="M41.656,19.218c0-.749,.113-1.393,.338-1.933,.226-.541,.525-.943,.899-1.208,.29-.209,.589-.314,.898-.314,.503,0,.954,.256,1.353,.77,.5,.635,.749,1.497,.749,2.584,0,.761-.109,1.408-.329,1.94-.219,.532-.499,.919-.838,1.159s-.667,.36-.983,.36c-.625,0-1.146-.37-1.561-1.108-.351-.623-.527-1.373-.527-2.25Zm.947,.121c0,.903,.111,1.641,.333,2.211,.184,.48,.458,.721,.821,.721,.174,0,.354-.079,.542-.235,.187-.156,.329-.418,.425-.786,.148-.555,.223-1.337,.223-2.347,0-.749-.078-1.373-.232-1.873-.116-.371-.266-.634-.45-.789-.132-.106-.292-.16-.478-.16-.219,0-.414,.099-.585,.295-.232,.268-.39,.688-.474,1.263-.083,.574-.125,1.141-.125,1.698Z"/>
    <g>
      <path class="cls-1" d="M1.385,8.011l2.828-.607c.202,.483,.366,.977,.49,1.479,.176,.738,.319,1.614,.43,2.626,.052,.51,.124,1.587,.215,3.234,.816-.901,1.302-1.46,1.458-1.676,.861-1.169,1.357-1.855,1.487-2.058,.215-.346,.366-.65,.45-.911,.072-.196,.108-.382,.108-.559,0-.17-.152-.366-.455-.588-.304-.222-.455-.471-.455-.745,0-.209,.083-.395,.25-.558,.167-.164,.364-.245,.592-.245,.274,0,.515,.113,.724,.338,.208,.226,.313,.505,.313,.838s-.052,.653-.157,.96c-.169,.497-.486,1.103-.949,1.818s-1.21,1.674-2.241,2.876c-.13,.15-.854,.908-2.172,2.274h-.362c-.157-4.136-.483-6.716-.979-7.742-.163-.333-.434-.5-.812-.5-.163,0-.395,.029-.695,.088l-.068-.343Z"/>
      <path class="cls-1" d="M32.75,8.011l2.828-.607c.202,.483,.366,.977,.49,1.479,.176,.738,.319,1.614,.43,2.626,.052,.51,.124,1.587,.215,3.234,.816-.901,1.302-1.46,1.458-1.676,.861-1.169,1.357-1.855,1.487-2.058,.215-.346,.366-.65,.45-.911,.072-.196,.108-.382,.108-.559,0-.17-.152-.366-.455-.588-.304-.222-.455-.471-.455-.745,0-.209,.083-.395,.25-.558,.167-.164,.364-.245,.592-.245,.274,0,.515,.113,.724,.338,.208,.226,.313,.505,.313,.838s-.052,.653-.157,.96c-.169,.497-.486,1.103-.949,1.818s-1.21,1.674-2.241,2.876c-.13,.15-.854,.908-2.172,2.274h-.362c-.157-4.136-.483-6.716-.979-7.742-.163-.333-.434-.5-.812-.5-.163,0-.395,.029-.695,.088l-.068-.343Z"/>
      <path class="cls-1" d="M77.919,7.404l-1.908,6.644-.215,.892c-.02,.085-.029,.157-.029,.216,0,.104,.033,.196,.098,.274,.052,.059,.118,.088,.196,.088,.085,0,.196-.052,.333-.157,.254-.189,.593-.582,1.018-1.176l.333,.235c-.45,.68-.914,1.197-1.39,1.553-.477,.356-.917,.534-1.321,.534-.281,0-.491-.07-.631-.211-.141-.14-.21-.344-.21-.612,0-.32,.072-.742,.215-1.264l.206-.735c-.855,1.117-1.641,1.898-2.359,2.342-.515,.32-1.021,.48-1.517,.48-.477,0-.888-.198-1.233-.593-.346-.395-.519-.939-.519-1.631,0-1.039,.312-2.135,.935-3.288,.623-1.153,1.414-2.076,2.374-2.768,.75-.549,1.458-.823,2.124-.823,.398,0,.729,.104,.993,.313,.265,.209,.465,.555,.602,1.039l.353-1.117,1.556-.235Zm-3.484,.509c-.417,0-.861,.196-1.331,.588-.666,.555-1.257,1.378-1.776,2.469-.519,1.091-.778,2.078-.778,2.959,0,.444,.111,.795,.333,1.054,.222,.258,.477,.387,.764,.387,.711,0,1.484-.526,2.319-1.578,1.116-1.398,1.673-2.832,1.673-4.302,0-.555-.107-.957-.323-1.206-.215-.248-.509-.373-.881-.373Z"/>
      <path class="cls-1" d="M83.742,4.973l-.763,2.666h1.536l-.166,.618h-1.527l-1.684,5.782c-.183,.621-.274,1.022-.274,1.206,0,.111,.026,.196,.079,.254,.052,.059,.114,.088,.186,.088,.163,0,.378-.114,.646-.343,.157-.131,.506-.533,1.047-1.206l.323,.245c-.6,.875-1.168,1.493-1.703,1.852-.366,.248-.734,.373-1.106,.373-.287,0-.522-.09-.705-.27s-.274-.41-.274-.691c0-.353,.104-.892,.313-1.617l1.634-5.674h-1.478l.098-.382c.718-.196,1.314-.488,1.791-.877,.476-.389,1.008-1.063,1.595-2.024h.431Z"/>
    </g>
    <g>
      <path class="cls-1" d="M16.239,8.834h10.276v.951h-10.276v-.951Zm0,3.655h10.276v.97h-10.276v-.97Z"/>
      <path class="cls-1" d="M57.983,5.983h.959v4.684h4.649v.951h-4.649v4.655h-.959v-4.655h-4.668v-.951h4.668V5.983Z"/>
    </g>
  </g>
  <g>
    <path class="cls-1" d="M38.754,43.083l-2.738,9.351c1.182-1.759,2.104-2.928,2.767-3.505s1.296-.867,1.9-.867c.312,0,.571,.106,.779,.318s.312,.494,.312,.847c0,.424-.091,.937-.272,1.541l-1.189,4.035c-.149,.488-.224,.758-.224,.809,0,.09,.027,.164,.083,.221,.055,.058,.119,.087,.19,.087,.084,0,.182-.042,.292-.125,.37-.282,.737-.674,1.101-1.175l.302,.183c-.221,.34-.528,.714-.92,1.122-.393,.408-.731,.69-1.014,.847-.282,.157-.534,.236-.755,.236-.24,0-.437-.075-.589-.226-.153-.151-.229-.345-.229-.583,0-.283,.114-.809,.341-1.58l1.121-3.852c.143-.481,.214-.86,.214-1.136,0-.128-.041-.231-.122-.308-.081-.077-.187-.116-.316-.116-.188,0-.403,.071-.643,.212-.442,.27-.952,.771-1.53,1.502-.156,.199-.675,1.001-1.559,2.408-.273,.449-.497,.94-.672,1.473l-.624,1.974h-1.461l3.206-11.016,.341-1.194c0-.167-.07-.314-.209-.443s-.31-.192-.511-.192c-.117,0-.296,.019-.536,.058l-.205,.029v-.375l3.371-.559Z"/>
    <g>
      <path class="cls-1" d="M3.918,52.066c-.67-.282-1.083-.584-1.234-.905-.151-.321-.153-.703-.003-1.146,.202-.597,.623-1.095,1.263-1.493,.873-.546,1.871-.819,2.995-.819,.669,0,1.243,.078,1.724,.231,.481,.155,.775,.355,.884,.603s.125,.479,.052,.698c-.067,.199-.212,.38-.437,.544-.224,.164-.447,.245-.667,.245-.357,0-.577-.229-.66-.688-.082-.459-.184-.739-.305-.842-.197-.167-.481-.251-.851-.251-.585,0-1.105,.168-1.564,.505-.458,.338-.785,.795-.979,1.372-.19,.565-.193,.999-.01,1.3,.185,.302,.526,.453,1.027,.453,.169,0,.357-.012,.567-.038,.334-.045,.591-.067,.773-.067,.278,0,.457,.035,.534,.105,.076,.071,.099,.154,.066,.25-.032,.096-.1,.17-.201,.221-.146,.083-.364,.126-.656,.126-.065,0-.169-.01-.312-.03-.323-.044-.591-.067-.806-.067-.545,0-1.052,.177-1.518,.53-.467,.353-.797,.818-.992,1.396-.228,.673-.225,1.198,.009,1.574,.234,.376,.637,.563,1.208,.563,.461,0,.884-.138,1.27-.415,.223-.16,.514-.494,.874-1.001,.235-.333,.407-.54,.509-.616,.277-.206,.533-.308,.768-.308,.272,0,.471,.093,.597,.279,.126,.186,.142,.417,.049,.693-.149,.443-.543,.852-1.183,1.224-.927,.533-1.968,.799-3.124,.799-1.221,0-2.071-.267-2.551-.799-.479-.533-.61-1.124-.392-1.772,.156-.462,.481-.902,.977-1.32,.494-.417,1.261-.796,2.297-1.136Z"/>
      <path class="cls-1" d="M46.39,55.003l2.842-3.139c.479-.533,.792-1.021,.942-1.464,.066-.199,.121-.459,.165-.78,.056-.417,.112-.709,.169-.876,.105-.314,.278-.566,.519-.756,.238-.188,.491-.284,.758-.284,.299,0,.504,.089,.616,.266,.113,.176,.116,.425,.007,.746-.084,.25-.195,.481-.332,.693-.262,.393-.66,.889-1.194,1.493l-2.271,2.484-3.345,3.679h-.399l-.461-6.115c-.073-.976-.161-1.572-.263-1.791-.16-.334-.399-.5-.718-.5-.091,0-.216,.016-.376,.048l.123-.367,2.374-.625h.292c.142,.661,.231,1.367,.271,2.118l.282,5.171Z"/>
    </g>
    <path class="cls-1" d="M16.555,49.468h10.23v.934h-10.23v-.934Zm0,3.592h10.23v.953h-10.23v-.953Z"/>
  </g>
  <path class="cls-1" d="M142.17,15.727c-1.563,1.721-3.687,2.66-6.37,2.816-2.684,.157-4.976-.678-6.877-2.503-1.903-1.825-2.866-3.963-2.892-6.416-.027-2.451,.637-4.485,1.993-6.103,1.354-1.616,2.708-2.607,4.064-2.973,1.354-.364,2.474-.548,3.36-.548,.782,0,1.81,.157,3.087,.47,1.276,.313,2.618,1.291,4.025,2.934s2.083,3.677,2.032,6.103c-.053,2.425-.86,4.499-2.423,6.22Zm-3.517,1.643c1.302-.418,2.527-1.409,3.673-2.973,1.146-1.565,1.667-3.482,1.563-5.751-.105-2.269-1.004-4.198-2.696-5.79-1.693-1.59-3.726-2.347-6.096-2.269-2.372,.078-4.376,.992-6.018,2.738-1.641,1.749-2.437,3.769-2.384,6.064,.051,2.295,.768,4.173,2.149,5.633,1.379,1.46,2.644,2.32,3.79,2.582,1.146,.261,2.032,.391,2.657,.391,.938,0,2.058-.209,3.36-.625Zm-6.018-2.973c1.354,.052,2.032-.208,2.032-.783V5.946c0-.469-.678-.704-2.032-.704v-.391c1.146,0,2.11-.339,2.892-1.017h.391V13.614c0,.575,.676,.835,2.032,.783v.469h-5.314v-.469Z"/>
  <path class="cls-1" d="M142.17,56.312c-1.563,1.721-3.687,2.66-6.37,2.816-2.684,.157-4.976-.678-6.877-2.503-1.903-1.825-2.866-3.963-2.892-6.416-.027-2.451,.638-4.485,1.993-6.103,1.354-1.616,2.708-2.607,4.064-2.973,1.354-.364,2.474-.548,3.36-.548,.782,0,1.81,.157,3.087,.47,1.276,.313,2.618,1.291,4.025,2.934s2.083,3.677,2.032,6.103c-.053,2.425-.86,4.499-2.423,6.22Zm-3.517,1.643c1.302-.418,2.527-1.409,3.673-2.973,1.146-1.565,1.667-3.482,1.563-5.751-.105-2.269-1.004-4.198-2.696-5.79-1.693-1.59-3.726-2.347-6.096-2.269-2.372,.078-4.376,.992-6.018,2.738-1.642,1.749-2.437,3.769-2.384,6.064,.051,2.295,.768,4.173,2.149,5.633,1.38,1.46,2.644,2.32,3.791,2.582,1.146,.261,2.032,.391,2.657,.391,.938,0,2.058-.209,3.36-.625Zm-6.643-3.599h6.486l.938-2.034h.312l-.312,3.051h-8.362v-1.095c2.136-1.722,3.66-3.038,4.572-3.951,.911-.912,1.419-1.591,1.524-2.034,.104-.443,.156-.795,.156-1.057,0-.573-.195-1.121-.586-1.643-.391-.521-1.107-.755-2.149-.704-1.043,.053-1.708,.313-1.993,.783-.287,.469-.43,.782-.43,.938,0,.105,.025,.157,.078,.157,.156,.053,.325,.17,.508,.352,.182,.184,.234,.405,.156,.665-.078,.262-.261,.444-.547,.548-.287,.105-.561,.066-.821-.118-.261-.182-.391-.521-.391-1.017s.247-1.068,.743-1.721c.494-.651,1.237-1.056,2.227-1.213,.989-.156,1.94-.025,2.853,.392,.911,.418,1.446,.899,1.602,1.447s.235,.952,.235,1.213c0,.574-.209,1.173-.625,1.799-.417,.626-1.146,1.33-2.188,2.112-1.094,.835-2.423,1.878-3.986,3.13Z"/>
</svg>