<?xml version="1.0" encoding="UTF-8"?>
<svg id="_图层_1" data-name="图层 1" xmlns="http://www.w3.org/2000/svg" width="413.779" height="61.284" viewBox="0 0 413.779 61.284">
  <defs>
    <style>
      .cls-1 {
        fill: #f9e978;
      }

      .cls-2 {
        fill: #231815;
      }
    </style>
  </defs>
  <g>
    <rect class="cls-1" x="310.546" y="43.018" width="11.207" height="18.265"/>
    <g>
      <path class="cls-2" d="M307.192,43.083l-2.738,9.351c1.182-1.759,2.104-2.928,2.767-3.505s1.296-.867,1.9-.867c.312,0,.571,.106,.779,.318s.312,.494,.312,.847c0,.424-.091,.937-.272,1.541l-1.189,4.035c-.149,.488-.224,.758-.224,.809,0,.09,.027,.164,.083,.221,.055,.058,.119,.087,.19,.087,.084,0,.182-.042,.292-.125,.37-.282,.737-.674,1.101-1.175l.302,.183c-.221,.34-.528,.714-.92,1.122-.393,.408-.731,.69-1.014,.847-.282,.157-.534,.236-.755,.236-.24,0-.437-.075-.589-.226-.153-.151-.229-.345-.229-.583,0-.283,.114-.809,.341-1.58l1.121-3.852c.143-.481,.214-.86,.214-1.136,0-.128-.041-.231-.122-.308-.081-.077-.187-.116-.316-.116-.188,0-.403,.071-.643,.212-.442,.27-.952,.771-1.53,1.502-.156,.199-.675,1.001-1.559,2.408-.273,.449-.497,.94-.672,1.473l-.624,1.974h-1.461l3.206-11.016,.341-1.194c0-.167-.07-.314-.209-.443s-.31-.192-.511-.192c-.117,0-.296,.019-.536,.058l-.205,.029v-.375l3.371-.559Z"/>
      <path class="cls-2" d="M314.828,55.003l2.842-3.139c.479-.533,.792-1.021,.942-1.464,.066-.199,.121-.459,.165-.78,.056-.417,.112-.709,.169-.876,.105-.314,.278-.566,.519-.756,.238-.188,.491-.284,.758-.284,.299,0,.504,.089,.616,.266,.113,.176,.116,.425,.007,.746-.084,.25-.195,.481-.332,.693-.262,.393-.66,.889-1.194,1.493l-2.271,2.484-3.345,3.679h-.399l-.461-6.115c-.073-.976-.161-1.572-.263-1.791-.16-.334-.399-.5-.718-.5-.091,0-.216,.016-.376,.048l.123-.367,2.374-.625h.292c.142,.661,.231,1.367,.271,2.118l.282,5.171Z"/>
      <path class="cls-2" d="M284.993,49.468h10.23v.934h-10.23v-.934Zm0,3.592h10.23v.953h-10.23v-.953Z"/>
    </g>
    <path d="M274.715,43.971l-1.575,5.446h1.29c.922,0,1.589-.141,2.002-.422,.413-.281,.769-.801,1.067-1.56h.376l-1.413,5h-.406c.122-.42,.184-.779,.184-1.077,0-.292-.06-.525-.179-.701-.118-.176-.28-.307-.487-.391-.207-.085-.642-.127-1.306-.127h-1.311l-1.331,4.562c-.129,.44-.193,.776-.193,1.006,0,.176,.085,.332,.254,.468,.115,.095,.403,.142,.863,.142h1.22c1.321,0,2.379-.234,3.176-.701,.796-.467,1.509-1.28,2.139-2.438h.376l-1.301,3.831h-10.648l.132-.376c.528-.014,.884-.061,1.066-.142,.271-.122,.468-.278,.59-.468,.183-.277,.399-.86,.65-1.748l2.418-8.312c.189-.671,.285-1.182,.285-1.535,0-.257-.09-.458-.27-.604-.18-.146-.53-.218-1.052-.218h-.214l.122-.376h9.897l-.854,3.323h-.376c.047-.312,.071-.573,.071-.783,0-.359-.089-.661-.265-.904-.23-.312-.565-.549-1.006-.711-.325-.122-1.074-.183-2.246-.183h-1.747Z"/>
  </g>
  <g>
    <rect class="cls-1" x="268.405" y="2.509" width="11.207" height="18.265"/>
    <path class="cls-2" d="M410.497,15.727c-1.563,1.721-3.687,2.66-6.37,2.816-2.684,.157-4.976-.678-6.877-2.503-1.902-1.825-2.865-3.963-2.892-6.416-.026-2.451,.638-4.485,1.993-6.103,1.354-1.616,2.709-2.607,4.064-2.973C401.77,.184,402.89,0,403.775,0c.782,0,1.811,.157,3.088,.47,1.275,.313,2.617,1.291,4.024,2.934s2.083,3.677,2.032,6.103c-.053,2.425-.859,4.499-2.423,6.22Zm-3.517,1.643c1.301-.418,2.526-1.409,3.673-2.973,1.146-1.565,1.667-3.482,1.563-5.751-.105-2.269-1.004-4.198-2.697-5.79-1.693-1.59-3.725-2.347-6.096-2.269s-4.376,.992-6.018,2.738c-1.641,1.749-2.436,3.769-2.383,6.064,.051,2.295,.768,4.173,2.148,5.633,1.38,1.46,2.645,2.32,3.791,2.582,1.145,.261,2.031,.391,2.656,.391,.938,0,2.059-.209,3.361-.625Zm-2.893-8.293c1.615,.156,2.645,.508,3.088,1.056,.441,.547,.664,1.083,.664,1.604,0,.209-.066,.522-.195,.938-.131,.418-.561,.9-1.289,1.448-.73,.547-1.733,.796-3.01,.743-1.277-.051-2.227-.338-2.852-.861-.626-.521-.99-.951-1.095-1.291-.104-.339-.156-.587-.156-.744,0-.313,.091-.534,.273-.665,.183-.129,.352-.195,.509-.195,.207,0,.441,.078,.703,.234,.26,.157,.338,.379,.234,.665-.105,.288-.262,.483-.469,.587-.105,.053-.156,.105-.156,.157,0,.156,.221,.444,.664,.86,.441,.418,1.184,.614,2.227,.587,1.042-.026,1.837-.274,2.385-.743,.547-.47,.82-1.017,.82-1.643s-.312-1.213-.938-1.76c-.625-.548-1.928-.795-3.907-.744v-.469c1.302,.053,2.356-.065,3.165-.352,.808-.286,1.198-.9,1.173-1.839-.027-.938-.326-1.538-.899-1.799-.573-.26-1.146-.391-1.72-.391-.312,0-.717,.039-1.211,.117-.496,.078-.834,.235-1.016,.47-.184,.234-.273,.404-.273,.508,0,.157,.078,.235,.234,.235,.312,.105,.441,.365,.391,.782-.053,.418-.287,.653-.703,.704-.418,.053-.703-.039-.86-.274-.156-.234-.234-.43-.234-.586,0-.313,.195-.744,.587-1.291,.391-.548,.91-.912,1.562-1.096,.65-.182,1.211-.273,1.68-.273,.364,0,.899,.078,1.603,.234,.704,.157,1.263,.47,1.681,.939,.416,.47,.625,.966,.625,1.487,0,.365-.092,.821-.273,1.369-.184,.547-1.186,.978-3.01,1.291Z"/>
    <path class="cls-2" d="M410.575,56.312c-1.563,1.721-3.687,2.66-6.37,2.816-2.684,.157-4.976-.678-6.877-2.503-1.902-1.825-2.865-3.963-2.892-6.416-.026-2.451,.638-4.485,1.993-6.103,1.354-1.616,2.709-2.607,4.064-2.973,1.354-.364,2.474-.548,3.359-.548,.782,0,1.811,.157,3.088,.47,1.275,.313,2.617,1.291,4.024,2.934s2.083,3.677,2.032,6.103c-.053,2.425-.859,4.499-2.423,6.22Zm-3.517,1.643c1.301-.418,2.526-1.409,3.673-2.973,1.146-1.565,1.667-3.482,1.563-5.751-.105-2.269-1.004-4.198-2.697-5.79-1.693-1.59-3.725-2.347-6.096-2.269s-4.376,.992-6.018,2.738c-1.641,1.749-2.436,3.769-2.383,6.064,.051,2.295,.768,4.173,2.148,5.633,1.38,1.46,2.645,2.32,3.791,2.582,1.145,.261,2.031,.391,2.656,.391,.938,0,2.059-.209,3.361-.625Zm-1.798-13.849v7.902h2.345v.547h-2.345v1.8c0,.418,.548,.626,1.642,.626v.391h-4.846v-.391c1.197,0,1.797-.235,1.797-.704v-1.722h-5.001v-.391l5.157-8.059h1.251Zm-1.407,7.902v-6.416l-4.142,6.416h4.142Z"/>
    <g>
      <path d="M310.266,19.218c0-.749,.112-1.393,.337-1.933,.224-.541,.522-.943,.894-1.208,.288-.209,.586-.314,.894-.314,.5,0,.948,.256,1.346,.77,.497,.635,.745,1.497,.745,2.584,0,.761-.109,1.408-.327,1.94-.218,.532-.496,.918-.834,1.159-.338,.24-.664,.36-.978,.36-.622,0-1.139-.37-1.553-1.108-.349-.623-.524-1.373-.524-2.25Zm.942,.121c0,.903,.11,1.641,.332,2.211,.183,.48,.455,.721,.817,.721,.173,0,.353-.079,.538-.235,.186-.156,.327-.418,.423-.786,.147-.555,.221-1.337,.221-2.347,0-.748-.077-1.372-.23-1.872-.115-.371-.265-.634-.447-.789-.131-.106-.29-.16-.476-.16-.218,0-.412,.099-.582,.295-.231,.268-.388,.688-.471,1.263-.083,.574-.125,1.141-.125,1.698Z"/>
      <g>
        <path d="M346.359,7.404l-1.898,6.644-.214,.892c-.02,.085-.029,.157-.029,.216,0,.104,.032,.196,.097,.274,.052,.059,.117,.088,.195,.088,.084,0,.195-.052,.331-.157,.253-.189,.59-.581,1.012-1.176l.331,.235c-.448,.68-.909,1.197-1.382,1.553s-.912,.534-1.314,.534c-.279,0-.488-.07-.628-.211-.14-.14-.209-.344-.209-.612,0-.32,.071-.742,.214-1.264l.205-.735c-.85,1.117-1.632,1.898-2.346,2.342-.513,.32-1.016,.48-1.509,.48-.474,0-.883-.198-1.227-.593-.344-.395-.516-.939-.516-1.631,0-1.039,.31-2.135,.93-3.288,.62-1.153,1.407-2.076,2.361-2.768,.746-.549,1.451-.823,2.112-.823,.396,0,.726,.104,.988,.313s.462,.555,.599,1.039l.351-1.117,1.548-.235Zm-3.466,.509c-.416,0-.856,.196-1.324,.588-.662,.555-1.251,1.378-1.767,2.469-.516,1.091-.774,2.078-.774,2.959,0,.444,.11,.795,.331,1.054s.474,.387,.759,.387c.708,0,1.477-.526,2.307-1.578,1.11-1.398,1.665-2.832,1.665-4.302,0-.555-.107-.957-.321-1.206-.214-.248-.506-.373-.876-.373Z"/>
        <path d="M352.151,4.973l-.759,2.666h1.528l-.166,.618h-1.519l-1.675,5.782c-.182,.621-.272,1.022-.272,1.206,0,.111,.026,.196,.078,.254,.052,.059,.113,.088,.185,.088,.163,0,.376-.114,.643-.343,.156-.131,.503-.533,1.042-1.206l.321,.245c-.597,.875-1.162,1.493-1.694,1.852-.363,.248-.73,.373-1.1,.373-.286,0-.52-.09-.701-.27s-.272-.41-.272-.691c0-.353,.104-.892,.312-1.617l1.625-5.674h-1.47l.097-.382c.714-.196,1.308-.488,1.782-.877,.474-.389,1.002-1.063,1.587-2.024h.428Z"/>
      </g>
      <g>
        <path d="M284.644,8.834h10.222v.951h-10.222v-.951Zm0,3.655h10.222v.97h-10.222v-.97Z"/>
        <path d="M326.489,5.983h.954v4.684h4.624v.951h-4.624v4.655h-.954v-4.655h-4.644v-.951h4.644V5.983Z"/>
      </g>
      <g>
        <path d="M269.467,9.305h-.438l.604-1.666,.233-.706c.195-.052,.38-.091,.555-.117,.175-.026,.34-.04,.496-.04,.247,0,.594,.04,1.042,.118,.551,.098,.944,.147,1.178,.147,.286,0,.649-.068,1.09-.206l.156,.245c-1.019,1.3-1.723,2.434-2.112,3.401-.39,.967-.584,1.924-.584,2.871,0,.693,.145,1.219,.434,1.578,.289,.359,.65,.539,1.085,.539,1.006,0,1.882-.665,2.628-1.994,.746-1.33,1.12-2.7,1.12-4.111,0-.431-.075-.742-.224-.931s-.354-.284-.613-.284c-.162,0-.354,.049-.574,.147l-.214-.343c.434-.386,.799-.758,1.096-1.117,.207-.04,.372-.059,.495-.059,.381,0,.695,.162,.941,.485,.246,.323,.369,.789,.369,1.396,0,1.11-.347,2.342-1.04,3.694-.694,1.353-1.559,2.44-2.596,3.263-.765,.614-1.484,.921-2.159,.921-.655,0-1.185-.232-1.59-.696s-.607-1.143-.607-2.039c0-.921,.247-1.875,.74-2.861,.298-.588,1.045-1.597,2.239-3.028-.409,.059-.747,.088-1.013,.088-.156,0-.351-.01-.584-.029-.279-.02-.48-.029-.604-.029-.11,0-.235,.011-.375,.034s-.297,.057-.472,.103c-.195,.294-.428,.702-.701,1.225Z"/>
        <path d="M300.224,9.305h-.438l.604-1.666,.233-.706c.195-.052,.38-.091,.555-.117,.175-.026,.34-.04,.496-.04,.247,0,.594,.04,1.042,.118,.551,.098,.944,.147,1.178,.147,.286,0,.649-.068,1.09-.206l.156,.245c-1.019,1.3-1.723,2.434-2.112,3.401-.39,.967-.584,1.924-.584,2.871,0,.693,.145,1.219,.434,1.578,.289,.359,.65,.539,1.085,.539,1.006,0,1.882-.665,2.628-1.994,.746-1.33,1.12-2.7,1.12-4.111,0-.431-.075-.742-.224-.931s-.354-.284-.613-.284c-.162,0-.354,.049-.574,.147l-.214-.343c.434-.386,.799-.758,1.096-1.117,.207-.04,.372-.059,.495-.059,.381,0,.695,.162,.941,.485,.246,.323,.369,.789,.369,1.396,0,1.11-.347,2.342-1.04,3.694-.694,1.353-1.559,2.44-2.596,3.263-.765,.614-1.484,.921-2.159,.921-.655,0-1.185-.232-1.59-.696s-.607-1.143-.607-2.039c0-.921,.247-1.875,.74-2.861,.298-.588,1.045-1.597,2.239-3.028-.409,.059-.747,.088-1.013,.088-.156,0-.351-.01-.584-.029-.279-.02-.48-.029-.604-.029-.11,0-.235,.011-.375,.034s-.297,.057-.472,.103c-.195,.294-.428,.702-.701,1.225Z"/>
      </g>
    </g>
  </g>
  <rect class="cls-1" x=".92" y="2.509" width="11.207" height="18.265"/>
  <g>
    <path class="cls-2" d="M42.576,19.218c0-.749,.113-1.393,.338-1.933,.226-.541,.525-.943,.899-1.208,.29-.209,.589-.314,.898-.314,.503,0,.954,.256,1.353,.77,.5,.635,.749,1.497,.749,2.584,0,.761-.109,1.408-.329,1.94-.219,.532-.499,.919-.838,1.159s-.667,.36-.983,.36c-.625,0-1.146-.37-1.561-1.108-.351-.623-.527-1.373-.527-2.25Zm.947,.121c0,.903,.111,1.641,.333,2.211,.184,.48,.458,.721,.821,.721,.174,0,.354-.079,.542-.235,.187-.156,.329-.418,.425-.786,.148-.555,.223-1.337,.223-2.347,0-.749-.078-1.373-.232-1.873-.116-.371-.266-.634-.45-.789-.132-.106-.292-.16-.478-.16-.219,0-.414,.099-.585,.295-.232,.268-.39,.688-.474,1.263-.083,.574-.125,1.141-.125,1.698Z"/>
    <g>
      <path class="cls-2" d="M2.305,8.011l2.828-.607c.202,.483,.366,.977,.49,1.479,.176,.738,.319,1.614,.43,2.626,.052,.51,.124,1.587,.215,3.234,.816-.901,1.302-1.46,1.458-1.676,.861-1.169,1.357-1.855,1.487-2.058,.215-.346,.366-.65,.45-.911,.072-.196,.108-.382,.108-.559,0-.17-.152-.366-.455-.588-.304-.222-.455-.471-.455-.745,0-.209,.083-.395,.25-.558,.167-.164,.364-.245,.592-.245,.274,0,.515,.113,.724,.338,.208,.226,.313,.505,.313,.838s-.052,.653-.157,.96c-.169,.497-.486,1.103-.949,1.818s-1.21,1.674-2.241,2.876c-.13,.15-.854,.908-2.172,2.274h-.362c-.157-4.136-.483-6.716-.979-7.742-.163-.333-.434-.5-.812-.5-.163,0-.395,.029-.695,.088l-.068-.343Z"/>
      <path class="cls-2" d="M33.67,8.011l2.828-.607c.202,.483,.366,.977,.49,1.479,.176,.738,.319,1.614,.43,2.626,.052,.51,.124,1.587,.215,3.234,.816-.901,1.302-1.46,1.458-1.676,.861-1.169,1.357-1.855,1.487-2.058,.215-.346,.366-.65,.45-.911,.072-.196,.108-.382,.108-.559,0-.17-.152-.366-.455-.588-.304-.222-.455-.471-.455-.745,0-.209,.083-.395,.25-.558,.167-.164,.364-.245,.592-.245,.274,0,.515,.113,.724,.338,.208,.226,.313,.505,.313,.838s-.052,.653-.157,.96c-.169,.497-.486,1.103-.949,1.818s-1.21,1.674-2.241,2.876c-.13,.15-.854,.908-2.172,2.274h-.362c-.157-4.136-.483-6.716-.979-7.742-.163-.333-.434-.5-.812-.5-.163,0-.395,.029-.695,.088l-.068-.343Z"/>
      <path class="cls-2" d="M78.839,7.404l-1.908,6.644-.215,.892c-.02,.085-.029,.157-.029,.216,0,.104,.033,.196,.098,.274,.052,.059,.118,.088,.196,.088,.085,0,.196-.052,.333-.157,.254-.189,.593-.582,1.018-1.176l.333,.235c-.45,.68-.914,1.197-1.39,1.553-.477,.356-.917,.534-1.321,.534-.281,0-.491-.07-.631-.211-.141-.14-.21-.344-.21-.612,0-.32,.072-.742,.215-1.264l.206-.735c-.855,1.117-1.641,1.898-2.359,2.342-.515,.32-1.021,.48-1.517,.48-.477,0-.888-.198-1.233-.593-.346-.395-.519-.939-.519-1.631,0-1.039,.312-2.135,.935-3.288,.623-1.153,1.414-2.076,2.374-2.768,.75-.549,1.458-.823,2.124-.823,.398,0,.729,.104,.993,.313,.265,.209,.465,.555,.602,1.039l.353-1.117,1.556-.235Zm-3.484,.509c-.417,0-.861,.196-1.331,.588-.666,.555-1.257,1.378-1.776,2.469-.519,1.091-.778,2.078-.778,2.959,0,.444,.111,.795,.333,1.054,.222,.258,.477,.387,.764,.387,.711,0,1.484-.526,2.319-1.578,1.116-1.398,1.673-2.832,1.673-4.302,0-.555-.107-.957-.323-1.206-.215-.248-.509-.373-.881-.373Z"/>
      <path class="cls-2" d="M84.662,4.973l-.763,2.666h1.536l-.166,.618h-1.527l-1.684,5.782c-.183,.621-.274,1.022-.274,1.206,0,.111,.026,.196,.079,.254,.052,.059,.114,.088,.186,.088,.163,0,.378-.114,.646-.343,.157-.131,.506-.533,1.047-1.206l.323,.245c-.6,.875-1.168,1.493-1.703,1.852-.366,.248-.734,.373-1.106,.373-.287,0-.522-.09-.705-.27s-.274-.41-.274-.691c0-.353,.104-.892,.313-1.617l1.634-5.674h-1.478l.098-.382c.718-.196,1.314-.488,1.791-.877,.476-.389,1.008-1.063,1.595-2.024h.431Z"/>
    </g>
    <g>
      <path class="cls-2" d="M17.159,8.834h10.276v.951h-10.276v-.951Zm0,3.655h10.276v.97h-10.276v-.97Z"/>
      <path class="cls-2" d="M58.903,5.983h.959v4.684h4.649v.951h-4.649v4.655h-.959v-4.655h-4.668v-.951h4.668V5.983Z"/>
    </g>
  </g>
  <path class="cls-2" d="M143.09,15.727c-1.563,1.721-3.687,2.66-6.369,2.816-2.684,.157-4.977-.678-6.877-2.503-1.903-1.825-2.866-3.963-2.892-6.416-.027-2.451,.637-4.485,1.993-6.103,1.354-1.616,2.708-2.607,4.064-2.973C134.363,.184,135.483,0,136.369,0c.782,0,1.81,.157,3.087,.47,1.276,.313,2.618,1.291,4.025,2.934s2.083,3.677,2.032,6.103c-.053,2.425-.86,4.499-2.423,6.22Zm-3.517,1.643c1.302-.418,2.526-1.409,3.673-2.973,1.146-1.565,1.667-3.482,1.563-5.751-.105-2.269-1.003-4.198-2.696-5.79-1.693-1.59-3.726-2.347-6.096-2.269-2.372,.078-4.376,.992-6.018,2.738-1.641,1.749-2.437,3.769-2.384,6.064,.051,2.295,.768,4.173,2.149,5.633,1.38,1.46,2.644,2.32,3.79,2.582,1.146,.261,2.032,.391,2.657,.391,.938,0,2.058-.209,3.361-.625Zm-6.018-2.973c1.354,.052,2.032-.208,2.032-.783V5.946c0-.469-.678-.704-2.032-.704v-.391c1.146,0,2.11-.339,2.892-1.017h.391V13.614c0,.575,.676,.835,2.032,.783v.469h-5.314v-.469Z"/>
  <path class="cls-2" d="M143.09,56.312c-1.563,1.721-3.687,2.66-6.37,2.816-2.684,.157-4.976-.678-6.877-2.503-1.903-1.825-2.866-3.963-2.892-6.416-.027-2.451,.638-4.485,1.993-6.103,1.354-1.616,2.708-2.607,4.064-2.973,1.354-.364,2.474-.548,3.36-.548,.782,0,1.81,.157,3.087,.47,1.276,.313,2.618,1.291,4.025,2.934s2.083,3.677,2.032,6.103c-.053,2.425-.86,4.499-2.423,6.22Zm-3.517,1.643c1.301-.418,2.526-1.409,3.673-2.973,1.146-1.565,1.667-3.482,1.563-5.751-.105-2.269-1.003-4.198-2.696-5.79-1.693-1.59-3.726-2.347-6.096-2.269-2.372,.078-4.376,.992-6.018,2.738-1.642,1.749-2.437,3.769-2.384,6.064,.051,2.295,.768,4.173,2.149,5.633,1.38,1.46,2.644,2.32,3.791,2.582,1.146,.261,2.032,.391,2.657,.391,.938,0,2.058-.209,3.361-.625Zm-6.643-3.599h6.486l.938-2.034h.312l-.312,3.051h-8.362v-1.095c2.136-1.722,3.66-3.038,4.572-3.951,.911-.912,1.419-1.591,1.524-2.034,.104-.443,.157-.795,.157-1.057,0-.573-.196-1.121-.586-1.643-.391-.521-1.107-.755-2.149-.704-1.043,.053-1.708,.313-1.993,.783-.287,.469-.43,.782-.43,.938,0,.105,.025,.157,.078,.157,.156,.053,.325,.17,.508,.352,.182,.184,.234,.405,.156,.665-.078,.262-.261,.444-.547,.548-.287,.105-.561,.066-.821-.118-.261-.182-.391-.521-.391-1.017s.247-1.068,.743-1.721c.495-.651,1.237-1.056,2.227-1.213,.989-.156,1.94-.025,2.853,.392,.911,.418,1.446,.899,1.602,1.447,.157,.548,.235,.952,.235,1.213,0,.574-.209,1.173-.625,1.799-.417,.626-1.146,1.33-2.188,2.112-1.094,.835-2.423,1.878-3.986,3.13Z"/>
  <path d="M218.557,30.642l-4.528-4.528h-23.099v-1.387h21.782l-3.423-3.387,1.001-1,10.303,10.303-10.268,10.268-1.036-1,3.423-3.422h-21.782v-1.352l23.099,.035,4.528-4.529Z"/>
  <g>
    <rect class="cls-1" x="43.028" y="43.018" width="11.207" height="18.265"/>
    <g>
      <path class="cls-2" d="M39.674,43.083l-2.738,9.351c1.182-1.759,2.104-2.928,2.767-3.505s1.296-.867,1.9-.867c.312,0,.571,.106,.779,.318s.312,.494,.312,.847c0,.424-.091,.937-.272,1.541l-1.189,4.035c-.149,.488-.224,.758-.224,.809,0,.09,.027,.164,.083,.221,.055,.058,.119,.087,.19,.087,.084,0,.182-.042,.292-.125,.37-.282,.737-.674,1.101-1.175l.302,.183c-.221,.34-.528,.714-.92,1.122-.393,.408-.731,.69-1.014,.847-.282,.157-.534,.236-.755,.236-.24,0-.437-.075-.589-.226-.153-.151-.229-.345-.229-.583,0-.283,.114-.809,.341-1.58l1.121-3.852c.143-.481,.214-.86,.214-1.136,0-.128-.041-.231-.122-.308-.081-.077-.187-.116-.316-.116-.188,0-.403,.071-.643,.212-.442,.27-.952,.771-1.53,1.502-.156,.199-.675,1.001-1.559,2.408-.273,.449-.497,.94-.672,1.473l-.624,1.974h-1.461l3.206-11.016,.341-1.194c0-.167-.07-.314-.209-.443s-.31-.192-.511-.192c-.117,0-.296,.019-.536,.058l-.205,.029v-.375l3.371-.559Z"/>
      <path class="cls-2" d="M47.31,55.003l2.842-3.139c.479-.533,.792-1.021,.942-1.464,.066-.199,.121-.459,.165-.78,.056-.417,.112-.709,.169-.876,.105-.314,.278-.566,.519-.756,.238-.188,.491-.284,.758-.284,.299,0,.504,.089,.616,.266,.113,.176,.116,.425,.007,.746-.084,.25-.195,.481-.332,.693-.262,.393-.66,.889-1.194,1.493l-2.271,2.484-3.345,3.679h-.399l-.461-6.115c-.073-.976-.161-1.572-.263-1.791-.16-.334-.399-.5-.718-.5-.091,0-.216,.016-.376,.048l.123-.367,2.374-.625h.292c.142,.661,.231,1.367,.271,2.118l.282,5.171Z"/>
      <path class="cls-2" d="M17.475,49.468h10.23v.934h-10.23v-.934Zm0,3.592h10.23v.953h-10.23v-.953Z"/>
    </g>
    <path d="M7.197,43.971l-1.575,5.446h1.291c.921,0,1.589-.141,2.002-.422,.413-.281,.769-.801,1.067-1.56h.376l-1.413,5h-.406c.122-.42,.183-.779,.183-1.077,0-.292-.06-.525-.178-.701s-.281-.307-.488-.391c-.207-.085-.642-.127-1.306-.127h-1.311l-1.331,4.562c-.129,.44-.193,.776-.193,1.006,0,.176,.085,.332,.254,.468,.115,.095,.403,.142,.863,.142h1.22c1.321,0,2.379-.234,3.175-.701,.796-.467,1.509-1.28,2.139-2.438h.376l-1.3,3.831H-.007l.132-.376c.528-.014,.884-.061,1.067-.142,.271-.122,.468-.278,.589-.468,.183-.277,.4-.86,.65-1.748l2.418-8.312c.189-.671,.285-1.182,.285-1.535,0-.257-.09-.458-.27-.604-.18-.146-.53-.218-1.052-.218h-.213l.122-.376H13.619l-.854,3.323h-.376c.047-.312,.071-.573,.071-.783,0-.359-.088-.661-.264-.904-.23-.312-.566-.549-1.006-.711-.325-.122-1.074-.183-2.246-.183h-1.748Z"/>
  </g>
</svg>