<?xml version="1.0" encoding="UTF-8"?>
<svg id="_图层_1" data-name="图层 1" xmlns="http://www.w3.org/2000/svg" width="216.894" height="91.926" viewBox="0 0 216.894 91.926">
  <defs>
    <style>
      .cls-1 {
        fill: #040000;
      }

      .cls-2 {
        fill: #e8db78;
      }
    </style>
  </defs>
  <rect class="cls-2" x="63.162" y="64.528" width="16.81" height="27.398"/>
  <rect class="cls-2" y="3.765" width="16.81" height="27.398"/>
  <g>
    <path class="cls-1" d="M62.484,28.828c0-1.123,.169-2.09,.508-2.9,.338-.811,.787-1.414,1.348-1.811,.435-.314,.884-.472,1.348-.472,.754,0,1.43,.385,2.03,1.154,.749,.953,1.124,2.245,1.124,3.876,0,1.142-.164,2.112-.493,2.91-.328,.798-.748,1.378-1.258,1.739s-1.001,.541-1.474,.541c-.938,0-1.718-.554-2.342-1.662-.527-.934-.79-2.059-.79-3.375Zm1.421,.181c0,1.355,.167,2.461,.5,3.317,.275,.721,.686,1.082,1.232,1.082,.261,0,.532-.118,.812-.352,.28-.234,.493-.628,.637-1.179,.223-.833,.334-2.006,.334-3.52,0-1.123-.116-2.059-.348-2.809-.174-.557-.399-.951-.675-1.184-.198-.16-.437-.24-.717-.24-.329,0-.621,.148-.877,.443-.348,.401-.584,1.033-.71,1.894-.125,.861-.188,1.711-.188,2.547Z"/>
    <g>
      <path class="cls-1" d="M2.078,12.018l4.242-.911c.303,.725,.549,1.465,.735,2.219,.264,1.107,.479,2.421,.645,3.94,.078,.765,.186,2.381,.323,4.851,1.224-1.352,1.953-2.19,2.188-2.514,1.292-1.754,2.035-2.783,2.231-3.087,.323-.519,.549-.975,.675-1.367,.108-.294,.162-.573,.162-.838,0-.255-.228-.549-.683-.882-.456-.333-.683-.706-.683-1.118,0-.313,.125-.593,.374-.837,.25-.245,.546-.368,.888-.368,.411,0,.773,.169,1.086,.507,.313,.338,.469,.757,.469,1.257s-.078,.98-.235,1.441c-.254,.745-.729,1.654-1.424,2.727s-1.816,2.511-3.362,4.314c-.196,.226-1.282,1.362-3.259,3.411h-.543c-.235-6.204-.724-10.074-1.468-11.613-.245-.5-.651-.749-1.219-.749-.245,0-.592,.044-1.042,.133l-.103-.515Z"/>
      <path class="cls-1" d="M49.124,12.018l4.242-.911c.303,.725,.549,1.465,.735,2.219,.264,1.107,.479,2.421,.645,3.94,.078,.765,.186,2.381,.323,4.851,1.224-1.352,1.953-2.19,2.188-2.514,1.292-1.754,2.035-2.783,2.231-3.087,.323-.519,.549-.975,.675-1.367,.108-.294,.162-.573,.162-.838,0-.255-.228-.549-.683-.882-.456-.333-.683-.706-.683-1.118,0-.313,.125-.593,.374-.837,.25-.245,.546-.368,.888-.368,.411,0,.773,.169,1.086,.507,.313,.338,.469,.757,.469,1.257s-.078,.98-.235,1.441c-.254,.745-.729,1.654-1.424,2.727s-1.816,2.511-3.362,4.314c-.196,.226-1.282,1.362-3.259,3.411h-.543c-.235-6.204-.724-10.074-1.468-11.613-.245-.5-.651-.749-1.219-.749-.245,0-.592,.044-1.042,.133l-.103-.515Z"/>
      <path class="cls-1" d="M116.879,11.106l-2.862,9.966-.323,1.337c-.029,.128-.044,.236-.044,.324,0,.157,.049,.294,.146,.412,.078,.088,.177,.133,.294,.133,.127,0,.294-.078,.5-.235,.382-.284,.89-.872,1.526-1.764l.5,.353c-.675,1.02-1.37,1.796-2.084,2.33-.715,.534-1.375,.801-1.982,.801-.421,0-.737-.105-.947-.316-.211-.21-.316-.516-.316-.918,0-.48,.108-1.113,.323-1.896l.308-1.102c-1.282,1.676-2.462,2.847-3.538,3.513-.773,.48-1.531,.721-2.275,.721-.715,0-1.332-.297-1.85-.89-.519-.593-.778-1.408-.778-2.447,0-1.559,.467-3.202,1.402-4.932,.935-1.729,2.121-3.114,3.56-4.152,1.125-.823,2.187-1.235,3.185-1.235,.597,0,1.094,.157,1.49,.47,.397,.313,.697,.833,.903,1.558l.529-1.676,2.333-.352Zm-5.226,.764c-.626,0-1.292,.294-1.997,.883-.998,.833-1.886,2.068-2.665,3.704-.778,1.637-1.167,3.116-1.167,4.439,0,.667,.166,1.193,.499,1.581,.333,.387,.715,.581,1.146,.581,1.066,0,2.226-.789,3.479-2.367,1.674-2.097,2.51-4.248,2.51-6.453,0-.833-.161-1.436-.484-1.808-.323-.372-.763-.559-1.321-.559Z"/>
      <path class="cls-1" d="M125.613,7.46l-1.145,3.998h2.304l-.249,.927h-2.29l-2.525,8.673c-.274,.931-.411,1.534-.411,1.808,0,.166,.04,.294,.118,.382,.078,.089,.171,.133,.278,.133,.245,0,.568-.171,.969-.514,.235-.196,.759-.799,1.571-1.808l.484,.368c-.9,1.313-1.752,2.239-2.554,2.778-.549,.372-1.101,.559-1.659,.559-.431,0-.783-.135-1.057-.404s-.411-.615-.411-1.036c0-.53,.156-1.338,.469-2.426l2.451-8.511h-2.216l.146-.573c1.077-.294,1.972-.732,2.687-1.315,.714-.583,1.512-1.595,2.393-3.036h.646Z"/>
    </g>
    <g>
      <path class="cls-1" d="M24.358,13.252h15.414v1.426h-15.414v-1.426Zm0,5.483h15.414v1.455h-15.414v-1.455Z"/>
      <path class="cls-1" d="M86.975,8.975h1.438v7.026h6.973v1.426h-6.973v6.982h-1.438v-6.982h-7.002v-1.426h7.002v-7.026Z"/>
    </g>
  </g>
  <g>
    <path class="cls-1" d="M58.131,64.626l-4.107,14.026c1.773-2.639,3.157-4.392,4.151-5.258s1.944-1.3,2.85-1.3c.467,0,.857,.159,1.169,.477s.467,.741,.467,1.271c0,.636-.136,1.406-.409,2.312l-1.783,6.052c-.224,.732-.335,1.137-.335,1.214,0,.135,.041,.245,.124,.332,.083,.087,.178,.13,.285,.13,.127,0,.272-.063,.439-.188,.555-.423,1.105-1.011,1.652-1.762l.453,.275c-.331,.51-.792,1.072-1.381,1.683-.59,.612-1.096,1.035-1.521,1.271-.423,.236-.801,.354-1.132,.354-.36,0-.656-.113-.884-.339-.229-.226-.344-.518-.344-.874,0-.424,.171-1.214,.511-2.369l1.681-5.777c.214-.722,.322-1.291,.322-1.704,0-.193-.061-.347-.183-.462-.122-.116-.28-.174-.475-.174-.283,0-.604,.106-.965,.318-.663,.404-1.427,1.156-2.295,2.253-.234,.299-1.013,1.502-2.338,3.612-.409,.674-.746,1.411-1.009,2.21l-.935,2.961h-2.192l4.808-16.524,.511-1.792c0-.25-.105-.472-.314-.664s-.465-.289-.767-.289c-.176,0-.444,.029-.804,.086l-.307,.043v-.563l5.057-.838Z"/>
    <g>
      <path class="cls-1" d="M5.877,78.1c-1.006-.423-1.624-.876-1.851-1.357-.227-.482-.229-1.054-.005-1.719,.302-.895,.934-1.642,1.895-2.239,1.309-.819,2.807-1.228,4.493-1.228,1.003,0,1.865,.116,2.585,.347,.721,.232,1.163,.533,1.326,.904s.188,.719,.078,1.047c-.101,.298-.318,.571-.655,.816-.336,.246-.67,.368-1.001,.368-.536,0-.865-.344-.99-1.033-.123-.688-.276-1.109-.457-1.263-.296-.251-.721-.376-1.277-.376-.877,0-1.658,.253-2.346,.758-.686,.507-1.177,1.192-1.469,2.058-.286,.848-.29,1.498-.015,1.95,.277,.453,.79,.679,1.541,.679,.253,0,.536-.018,.851-.057,.501-.068,.886-.101,1.16-.101,.417,0,.686,.053,.801,.158,.114,.107,.149,.231,.1,.376-.048,.144-.15,.256-.302,.332-.218,.125-.546,.189-.984,.189-.098,0-.254-.015-.468-.045-.485-.067-.886-.101-1.208-.101-.817,0-1.578,.265-2.276,.795-.7,.529-1.196,1.227-1.488,2.095-.341,1.01-.337,1.797,.013,2.361,.352,.564,.956,.845,1.813,.845,.691,0,1.326-.207,1.905-.622,.334-.24,.771-.741,1.31-1.501,.353-.5,.61-.809,.764-.924,.416-.308,.8-.462,1.151-.462,.409,0,.707,.14,.895,.419,.189,.279,.212,.626,.073,1.039-.224,.665-.814,1.277-1.774,1.835-1.39,.799-2.952,1.199-4.686,1.199-1.831,0-3.107-.4-3.826-1.199-.719-.8-.916-1.685-.587-2.658,.234-.693,.722-1.354,1.465-1.98,.741-.625,1.891-1.194,3.446-1.704Z"/>
      <path class="cls-1" d="M69.586,82.506l4.263-4.708c.718-.8,1.189-1.531,1.414-2.196,.1-.299,.182-.688,.248-1.17,.083-.626,.168-1.063,.253-1.315,.158-.472,.417-.849,.778-1.134,.357-.283,.737-.426,1.137-.426,.448,0,.756,.133,.924,.398,.169,.264,.174,.637,.011,1.119-.127,.376-.293,.721-.497,1.039-.393,.589-.99,1.334-1.792,2.239l-3.406,3.727-5.018,5.518h-.599l-.692-9.172c-.11-1.463-.242-2.358-.395-2.687-.24-.501-.599-.751-1.077-.751-.136,0-.324,.023-.565,.073l.185-.55,3.561-.938h.438c.212,.991,.347,2.05,.406,3.177l.423,7.756Z"/>
    </g>
    <path class="cls-1" d="M24.833,74.202h15.345v1.401h-15.345v-1.401Zm0,5.388h15.345v1.43h-15.345v-1.43Z"/>
  </g>
  <path class="cls-1" d="M213.256,23.589c-2.345,2.582-5.53,3.99-9.554,4.225-4.026,.235-7.464-1.018-10.316-3.755-2.854-2.738-4.299-5.945-4.337-9.624-.041-3.677,.956-6.728,2.989-9.154,2.031-2.424,4.062-3.911,6.096-4.459,2.031-.546,3.711-.822,5.041-.822,1.172,0,2.714,.235,4.63,.705,1.914,.469,3.927,1.936,6.037,4.401,2.11,2.464,3.125,5.516,3.048,9.154-.079,3.638-1.29,6.749-3.634,9.33Zm-5.275,2.465c1.953-.627,3.79-2.112,5.51-4.46,1.718-2.347,2.5-5.222,2.345-8.626-.158-3.403-1.506-6.297-4.044-8.685-2.541-2.386-5.588-3.521-9.144-3.403-3.557,.117-6.564,1.487-9.026,4.107-2.462,2.623-3.654,5.654-3.576,9.096,.077,3.444,1.152,6.26,3.224,8.45,2.07,2.191,3.965,3.48,5.686,3.873,1.718,.391,3.048,.587,3.986,.587,1.407,0,3.086-.313,5.041-.939Zm-9.026-4.46c2.031,.079,3.048-.312,3.048-1.173V8.919c0-.704-1.017-1.056-3.048-1.056v-.587c1.718,0,3.165-.508,4.337-1.525h.586v14.67c0,.862,1.015,1.252,3.048,1.173v.705h-7.971v-.705Z"/>
  <path class="cls-1" d="M213.256,84.468c-2.345,2.582-5.53,3.99-9.554,4.225-4.026,.235-7.464-1.018-10.316-3.755-2.854-2.738-4.299-5.945-4.337-9.624-.041-3.677,.956-6.728,2.989-9.154,2.031-2.424,4.062-3.911,6.096-4.459,2.031-.546,3.711-.822,5.041-.822,1.172,0,2.714,.235,4.63,.705,1.914,.469,3.927,1.936,6.037,4.401,2.11,2.464,3.125,5.516,3.048,9.154-.079,3.638-1.289,6.749-3.634,9.33Zm-5.275,2.465c1.953-.627,3.79-2.112,5.51-4.46,1.718-2.347,2.5-5.222,2.345-8.626-.158-3.403-1.506-6.297-4.044-8.685-2.541-2.386-5.588-3.521-9.144-3.403-3.557,.117-6.564,1.487-9.026,4.107-2.462,2.623-3.654,5.654-3.576,9.096,.077,3.444,1.152,6.26,3.224,8.45,2.07,2.191,3.965,3.48,5.686,3.873,1.718,.391,3.048,.587,3.986,.587,1.407,0,3.086-.313,5.041-.939Zm-9.964-5.398h9.73l1.407-3.052h.469l-.469,4.577h-12.543v-1.643c3.204-2.582,5.49-4.557,6.858-5.927,1.366-1.368,2.128-2.385,2.286-3.051,.155-.664,.234-1.192,.234-1.584,0-.86-.293-1.681-.879-2.464-.586-.781-1.661-1.133-3.224-1.056-1.564,.079-2.561,.469-2.989,1.173-.431,.705-.645,1.174-.645,1.409,0,.158,.039,.234,.117,.234,.234,.079,.487,.255,.762,.528,.273,.275,.352,.607,.234,.998-.117,.393-.392,.666-.821,.821-.43,.158-.84,.099-1.23-.176-.392-.273-.586-.781-.586-1.526s.37-1.603,1.114-2.582c.742-.978,1.855-1.584,3.341-1.819,1.484-.235,2.911-.039,4.279,.587,1.367,.627,2.169,1.35,2.403,2.171,.234,.822,.352,1.429,.352,1.819,0,.862-.313,1.76-.938,2.699-.626,.939-1.72,1.995-3.283,3.169-1.641,1.252-3.634,2.816-5.979,4.694Z"/>
</svg>