<?xml version="1.0" encoding="UTF-8"?>
<svg id="_图层_1" data-name="图层 1" xmlns="http://www.w3.org/2000/svg" width="99" height="13.024" viewBox="0 0 99 13.024">
  <defs>
    <style>
      .cls-1 {
        fill: #040000;
      }
    </style>
  </defs>
  <g>
    <path class="cls-1" d="M20.351,7.108c0-.374,.057-.696,.169-.967,.112-.27,.262-.471,.449-.604,.145-.104,.295-.157,.449-.157,.251,0,.477,.129,.677,.385,.249,.318,.374,.749,.374,1.292,0,.381-.055,.704-.164,.971-.11,.266-.249,.459-.419,.579s-.334,.18-.492,.18c-.312,0-.573-.185-.78-.554-.176-.312-.264-.687-.264-1.125Zm.474,.061c0,.452,.056,.82,.167,1.105,.092,.24,.229,.36,.411,.36,.087,0,.177-.039,.27-.117,.094-.078,.164-.209,.213-.393,.074-.277,.111-.669,.111-1.174,0-.374-.039-.687-.116-.937-.058-.186-.133-.316-.225-.394-.066-.054-.146-.08-.239-.08-.109,0-.207,.049-.292,.147-.116,.134-.195,.345-.237,.632-.042,.287-.063,.569-.063,.849Z"/>
    <g>
      <path class="cls-1" d="M.215,1.504l1.414-.304c.101,.242,.183,.489,.245,.74,.088,.369,.16,.807,.215,1.313,.026,.255,.062,.793,.108,1.617,.408-.45,.651-.729,.729-.838,.431-.584,.679-.927,.744-1.029,.108-.173,.183-.325,.225-.456,.036-.098,.054-.191,.054-.279,0-.085-.076-.183-.228-.294-.151-.111-.228-.235-.228-.373,0-.104,.042-.197,.125-.279,.083-.082,.182-.123,.296-.123,.137,0,.258,.057,.362,.169,.104,.112,.157,.252,.157,.419s-.026,.327-.079,.48c-.085,.248-.243,.551-.475,.909-.231,.358-.605,.837-1.121,1.438-.065,.075-.427,.454-1.086,1.137h-.181c-.079-2.067-.242-3.357-.49-3.871-.082-.167-.217-.25-.406-.25-.082,0-.198,.015-.348,.044l-.034-.172Z"/>
      <path class="cls-1" d="M15.897,1.504l1.414-.304c.101,.242,.183,.489,.245,.74,.088,.369,.16,.807,.215,1.313,.026,.255,.062,.793,.108,1.617,.408-.45,.651-.729,.729-.838,.431-.584,.679-.927,.744-1.029,.108-.173,.183-.325,.225-.456,.036-.098,.054-.191,.054-.279,0-.085-.076-.183-.228-.294-.151-.111-.228-.235-.228-.373,0-.104,.042-.197,.125-.279,.083-.082,.182-.123,.296-.123,.137,0,.258,.057,.362,.169,.104,.112,.157,.252,.157,.419s-.026,.327-.079,.48c-.085,.248-.243,.551-.475,.909-.231,.358-.605,.837-1.121,1.438-.065,.075-.427,.454-1.086,1.137h-.181c-.079-2.067-.242-3.357-.49-3.871-.082-.167-.217-.25-.406-.25-.082,0-.198,.015-.348,.044l-.034-.172Z"/>
      <path class="cls-1" d="M38.482,1.201l-.954,3.322-.107,.446c-.01,.042-.015,.078-.015,.107,0,.053,.017,.098,.049,.137,.026,.03,.059,.045,.098,.045,.043,0,.099-.026,.167-.079,.127-.095,.297-.29,.509-.588l.166,.118c-.225,.34-.457,.599-.694,.776-.238,.178-.459,.267-.661,.267-.14,0-.245-.035-.315-.104-.07-.07-.105-.173-.105-.307,0-.16,.036-.371,.108-.632l.103-.368c-.428,.559-.82,.949-1.18,1.172-.258,.159-.511,.239-.759,.239-.237,0-.443-.099-.616-.296s-.259-.47-.259-.816c0-.519,.155-1.067,.467-1.644,.312-.577,.707-1.038,1.187-1.384,.375-.274,.729-.412,1.062-.412,.198,0,.364,.052,.496,.157,.132,.105,.232,.278,.301,.52l.177-.559,.777-.118Zm-1.741,.255c-.209,0-.431,.098-.666,.294-.333,.278-.629,.689-.888,1.235-.26,.545-.39,1.039-.39,1.48,0,.222,.056,.397,.167,.526,.11,.129,.237,.193,.381,.193,.356,0,.742-.263,1.16-.788,.558-.699,.837-1.417,.837-2.151,0-.278-.054-.479-.161-.603-.108-.124-.255-.186-.44-.186Z"/>
      <path class="cls-1" d="M41.395-.014l-.382,1.333h.769l-.084,.309h-.763l-.842,2.891c-.092,.311-.137,.512-.137,.603,0,.056,.013,.099,.039,.128,.025,.029,.057,.044,.093,.044,.081,0,.189-.058,.323-.172,.078-.065,.252-.266,.523-.603l.161,.122c-.3,.438-.584,.747-.852,.927-.183,.124-.367,.186-.553,.186-.144,0-.261-.045-.353-.135-.091-.09-.137-.204-.137-.345,0-.177,.052-.446,.156-.809l.817-2.837h-.739l.05-.191c.358-.098,.657-.244,.896-.438,.237-.194,.504-.532,.797-1.012h.216Z"/>
    </g>
    <g>
      <path class="cls-1" d="M7.642,1.916h5.138v.476H7.642v-.476Zm0,1.828h5.138v.485H7.642v-.485Z"/>
      <path class="cls-1" d="M28.515,.49h.479V2.833h2.324v.475h-2.324v2.328h-.479V3.308h-2.335v-.475h2.335V.49Z"/>
    </g>
  </g>
  <g>
    <path class="cls-1" d="M88.175,1.878l-1.369,4.675c.591-.879,1.053-1.463,1.384-1.752,.331-.289,.647-.434,.95-.434,.155,0,.285,.053,.39,.159,.104,.106,.155,.248,.155,.424,0,.212-.045,.469-.136,.771l-.595,2.017c-.074,.244-.112,.379-.112,.404,0,.045,.014,.082,.042,.111,.027,.028,.059,.043,.095,.043,.042,0,.091-.021,.146-.062,.185-.141,.368-.337,.55-.587l.151,.091c-.11,.171-.264,.357-.46,.562-.197,.203-.366,.345-.507,.424-.142,.078-.268,.117-.378,.117-.12,0-.218-.037-.295-.113-.076-.075-.114-.172-.114-.291,0-.141,.057-.404,.171-.789l.56-1.926c.072-.241,.107-.43,.107-.568,0-.064-.021-.115-.061-.154-.041-.039-.094-.058-.158-.058-.095,0-.201,.036-.321,.106-.222,.135-.477,.385-.766,.751-.077,.1-.338,.5-.779,1.204-.136,.225-.248,.47-.336,.736l-.312,.987h-.73l1.603-5.508,.17-.597c0-.083-.035-.157-.104-.222-.07-.064-.155-.096-.256-.096-.059,0-.147,.01-.268,.029l-.103,.015v-.188l1.686-.279Z"/>
    <g>
      <path class="cls-1" d="M70.756,6.369c-.335-.14-.541-.291-.617-.452-.076-.16-.076-.352,0-.573,.101-.299,.31-.547,.631-.747,.436-.272,.935-.409,1.497-.409,.335,0,.622,.039,.862,.116s.387,.178,.442,.301c.054,.124,.063,.241,.026,.35-.033,.099-.107,.19-.219,.271-.112,.083-.223,.124-.333,.124-.179,0-.29-.115-.33-.344-.041-.229-.092-.371-.153-.421-.098-.083-.24-.125-.426-.125-.292,0-.553,.084-.781,.253s-.392,.397-.489,.686c-.095,.282-.097,.5-.005,.65,.093,.151,.264,.226,.514,.226,.084,0,.179-.007,.284-.02,.167-.022,.296-.033,.387-.033,.14,0,.229,.018,.267,.053,.039,.035,.049,.077,.033,.125s-.049,.085-.1,.111c-.072,.041-.183,.062-.329,.062-.032,0-.084-.005-.155-.015-.162-.022-.296-.033-.403-.033-.273,0-.526,.088-.759,.265s-.399,.408-.496,.697c-.114,.338-.112,.6,.005,.788,.116,.188,.318,.281,.604,.281,.23,0,.442-.069,.634-.207,.112-.08,.257-.247,.438-.5,.118-.168,.202-.271,.254-.309,.139-.103,.267-.154,.383-.154,.137,0,.236,.046,.299,.14,.062,.094,.07,.209,.023,.347-.074,.222-.271,.425-.59,.611-.463,.267-.985,.399-1.562,.399-.611,0-1.036-.133-1.276-.399-.24-.266-.305-.562-.196-.886,.078-.231,.241-.451,.488-.66,.247-.208,.63-.397,1.148-.568Z"/>
      <path class="cls-1" d="M91.992,7.838l1.421-1.569c.239-.267,.396-.511,.471-.732,.033-.099,.062-.229,.082-.39,.029-.209,.058-.355,.086-.438,.053-.157,.139-.283,.258-.377,.12-.095,.246-.143,.379-.143,.15,0,.253,.044,.31,.132,.056,.089,.057,.213,.003,.374-.043,.125-.097,.24-.166,.346-.131,.196-.33,.445-.598,.747l-1.135,1.242-1.673,1.84h-.199l-.23-3.058c-.036-.489-.08-.787-.132-.896-.08-.167-.199-.251-.358-.251-.046,0-.108,.008-.188,.024l.062-.182,1.187-.313h.146c.069,.331,.115,.684,.134,1.059l.142,2.585Z"/>
    </g>
    <path class="cls-1" d="M77.076,5.07h5.115v.467h-5.115v-.467Zm0,1.796h5.115v.477h-5.115v-.477Z"/>
  </g>
</svg>