<?xml version="1.0" encoding="UTF-8"?>
<svg id="_图层_1" data-name="图层 1" xmlns="http://www.w3.org/2000/svg" width="128.659" height="45.22" viewBox="0 0 128.659 45.22">
  <defs>
    <style>
      .cls-1 {
        fill: #040000;
      }
    </style>
  </defs>
  <g>
    <path class="cls-1" d="M61.811,22.194c0-1.123,.169-2.089,.508-2.899,.338-.811,.788-1.414,1.348-1.811,.435-.314,.884-.472,1.348-.472,.754,0,1.43,.385,2.029,1.154,.749,.954,1.124,2.245,1.124,3.876,0,1.142-.164,2.112-.493,2.91s-.748,1.378-1.258,1.738c-.51,.361-1.001,.541-1.475,.541-.938,0-1.718-.554-2.341-1.662-.527-.934-.791-2.059-.791-3.375Zm1.421,.182c0,1.354,.167,2.46,.5,3.317,.275,.721,.686,1.081,1.232,1.081,.261,0,.531-.117,.812-.352,.28-.234,.493-.627,.638-1.179,.222-.832,.333-2.005,.333-3.52,0-1.123-.116-2.059-.348-2.809-.174-.556-.398-.951-.674-1.183-.198-.16-.438-.239-.718-.239-.329,0-.621,.147-.877,.443-.348,.401-.585,1.033-.71,1.894s-.188,1.71-.188,2.548Z"/>
    <g>
      <path class="cls-1" d="M1.405,5.384l4.243-.912c.303,.726,.548,1.465,.734,2.22,.264,1.107,.479,2.42,.646,3.939,.078,.764,.186,2.381,.323,4.851,1.223-1.353,1.953-2.19,2.188-2.514,1.292-1.754,2.035-2.783,2.231-3.087,.323-.52,.548-.975,.675-1.367,.107-.294,.161-.573,.161-.838,0-.255-.228-.549-.683-.882s-.683-.706-.683-1.117c0-.313,.125-.593,.375-.838s.545-.368,.888-.368c.411,0,.773,.169,1.086,.507,.313,.338,.47,.757,.47,1.257s-.079,.98-.235,1.44c-.255,.745-.729,1.654-1.424,2.727-.695,1.073-1.815,2.512-3.361,4.314-.196,.226-1.282,1.362-3.259,3.411h-.543c-.235-6.204-.725-10.074-1.468-11.613-.245-.5-.651-.75-1.218-.75-.245,0-.592,.044-1.042,.132l-.103-.514Z"/>
      <path class="cls-1" d="M48.452,5.384l4.243-.912c.303,.726,.548,1.465,.734,2.22,.264,1.107,.479,2.42,.646,3.939,.078,.764,.186,2.381,.323,4.851,1.223-1.353,1.953-2.19,2.188-2.514,1.292-1.754,2.035-2.783,2.231-3.087,.323-.52,.548-.975,.675-1.367,.107-.294,.161-.573,.161-.838,0-.255-.228-.549-.683-.882s-.683-.706-.683-1.117c0-.313,.125-.593,.375-.838s.545-.368,.888-.368c.411,0,.773,.169,1.086,.507,.313,.338,.47,.757,.47,1.257s-.079,.98-.235,1.44c-.255,.745-.729,1.654-1.424,2.727-.695,1.073-1.815,2.512-3.361,4.314-.196,.226-1.282,1.362-3.259,3.411h-.543c-.235-6.204-.725-10.074-1.468-11.613-.245-.5-.651-.75-1.218-.75-.245,0-.592,.044-1.042,.132l-.103-.514Z"/>
      <path class="cls-1" d="M116.206,4.473l-2.862,9.966-.323,1.338c-.029,.127-.044,.235-.044,.323,0,.157,.049,.294,.147,.412,.078,.088,.176,.132,.293,.132,.127,0,.293-.078,.499-.235,.382-.284,.891-.872,1.527-1.764l.499,.353c-.675,1.02-1.37,1.796-2.084,2.33-.714,.534-1.375,.801-1.982,.801-.421,0-.736-.105-.947-.316-.21-.21-.315-.517-.315-.918,0-.48,.107-1.112,.323-1.896l.308-1.103c-1.282,1.676-2.461,2.847-3.538,3.513-.773,.48-1.532,.721-2.275,.721-.715,0-1.331-.297-1.85-.89-.519-.593-.778-1.409-.778-2.447,0-1.558,.467-3.202,1.402-4.932,.935-1.73,2.122-3.114,3.56-4.153,1.125-.823,2.188-1.235,3.186-1.235,.597,0,1.094,.157,1.49,.47,.396,.314,.697,.833,.903,1.559l.528-1.676,2.334-.353Zm-5.226,.765c-.626,0-1.292,.294-1.997,.882-.998,.833-1.886,2.068-2.664,3.704-.778,1.637-1.167,3.116-1.167,4.439,0,.667,.167,1.193,.5,1.58,.333,.387,.714,.581,1.145,.581,1.066,0,2.226-.789,3.479-2.367,1.673-2.097,2.51-4.248,2.51-6.453,0-.833-.162-1.436-.484-1.808-.323-.373-.763-.559-1.321-.559Z"/>
      <path class="cls-1" d="M124.94,.827l-1.145,3.999h2.305l-.25,.926h-2.291l-2.525,8.673c-.274,.931-.411,1.534-.411,1.808,0,.167,.039,.294,.118,.382,.078,.088,.171,.132,.279,.132,.245,0,.567-.171,.969-.515,.235-.196,.758-.799,1.571-1.808l.485,.368c-.901,1.313-1.752,2.239-2.555,2.778-.548,.372-1.101,.559-1.659,.559-.431,0-.783-.135-1.057-.404-.274-.27-.411-.615-.411-1.037,0-.529,.157-1.337,.47-2.425l2.451-8.511h-2.216l.146-.573c1.077-.294,1.972-.732,2.687-1.315s1.512-1.595,2.393-3.036h.646Z"/>
    </g>
    <g>
      <path class="cls-1" d="M23.685,6.619h15.414v1.426h-15.414v-1.426Zm0,5.483h15.414v1.455h-15.414v-1.455Z"/>
      <path class="cls-1" d="M86.302,2.341h1.439v7.026h6.973v1.426h-6.973v6.982h-1.439v-6.982h-7.002v-1.426h7.002V2.341Z"/>
    </g>
  </g>
  <g>
    <path class="cls-1" d="M57.765,22.893l-4.106,14.025c1.773-2.638,3.156-4.391,4.15-5.257,.994-.867,1.943-1.3,2.85-1.3,.468,0,.857,.159,1.169,.477,.312,.318,.468,.742,.468,1.271,0,.635-.137,1.406-.409,2.311l-1.783,6.052c-.225,.732-.336,1.136-.336,1.213,0,.135,.042,.245,.125,.332,.083,.086,.178,.13,.285,.13,.126,0,.273-.062,.438-.188,.556-.424,1.106-1.011,1.651-1.762l.453,.274c-.331,.51-.792,1.071-1.381,1.683-.59,.612-1.096,1.035-1.52,1.271s-.801,.354-1.133,.354c-.36,0-.655-.113-.884-.339-.229-.226-.344-.518-.344-.874,0-.424,.17-1.213,.512-2.369l1.681-5.778c.214-.722,.321-1.291,.321-1.705,0-.192-.061-.347-.183-.462-.122-.115-.28-.173-.475-.173-.283,0-.604,.106-.964,.318-.663,.405-1.427,1.156-2.294,2.253-.234,.299-1.013,1.502-2.338,3.611-.409,.674-.745,1.411-1.008,2.21l-.935,2.961h-2.192l4.808-16.524,.512-1.791c0-.25-.105-.472-.314-.665-.209-.192-.465-.289-.767-.289-.175,0-.443,.029-.804,.087l-.307,.043v-.563l5.057-.838Z"/>
    <g>
      <path class="cls-1" d="M5.511,36.366c-1.008-.424-1.625-.876-1.852-1.358-.228-.481-.229-1.054-.004-1.718,.302-.896,.933-1.642,1.895-2.239,1.308-.818,2.805-1.227,4.491-1.227,1.004,0,1.866,.115,2.587,.346,.721,.231,1.162,.532,1.324,.903s.189,.72,.079,1.047c-.101,.299-.32,.571-.655,.816-.337,.246-.67,.368-1.001,.368-.536,0-.867-.343-.99-1.033-.123-.688-.276-1.109-.458-1.263-.295-.251-.721-.376-1.277-.376-.877,0-1.658,.253-2.345,.758-.687,.506-1.176,1.192-1.469,2.059-.286,.847-.291,1.497-.014,1.95s.789,.679,1.539,.679c.254,0,.538-.02,.853-.058,.5-.068,.886-.101,1.16-.101,.419,0,.685,.053,.801,.159,.116,.105,.149,.23,.1,.375-.049,.144-.149,.255-.301,.332-.218,.126-.546,.188-.984,.188-.098,0-.254-.014-.468-.043-.484-.067-.887-.101-1.208-.101-.818,0-1.577,.266-2.277,.795s-1.195,1.228-1.487,2.094c-.341,1.011-.337,1.799,.014,2.361,.351,.563,.955,.845,1.812,.845,.691,0,1.327-.206,1.905-.621,.334-.241,.771-.741,1.31-1.502,.353-.5,.609-.809,.765-.924,.415-.309,.798-.463,1.149-.463,.409,0,.708,.14,.897,.419,.188,.28,.212,.626,.073,1.041-.224,.664-.816,1.276-1.774,1.834-1.39,.799-2.952,1.199-4.686,1.199-1.832,0-3.107-.4-3.827-1.199-.719-.799-.915-1.685-.587-2.658,.233-.693,.722-1.353,1.464-1.979,.743-.626,1.892-1.194,3.447-1.705Z"/>
      <path class="cls-1" d="M69.218,40.772l4.264-4.709c.717-.8,1.188-1.532,1.412-2.196,.101-.298,.184-.688,.248-1.17,.084-.625,.169-1.064,.254-1.315,.159-.471,.417-.85,.777-1.133,.358-.284,.737-.426,1.137-.426,.448,0,.757,.132,.926,.397,.169,.265,.172,.638,.01,1.12-.127,.375-.292,.722-.497,1.039-.393,.588-.99,1.334-1.792,2.239l-3.405,3.727-5.018,5.518h-.599l-.692-9.172c-.111-1.464-.243-2.358-.395-2.686-.24-.501-.599-.751-1.076-.751-.137,0-.325,.024-.564,.072l.185-.549,3.562-.939h.438c.21,.992,.345,2.052,.403,3.178l.424,7.757Z"/>
    </g>
    <path class="cls-1" d="M24.468,32.47h15.345v1.401h-15.345v-1.401Zm0,5.388h15.345v1.43h-15.345v-1.43Z"/>
  </g>
</svg>